<svg xmlns="http://www.w3.org/2000/svg" width="325.349" height="62" viewBox="0 0 325.349 62" role="img" aria-label="Kokua: a personal AI assistant that extends itself">
  <title>Kokua: a personal AI assistant that extends itself</title>
  <rect x="0" y="1.192" width="13.12" height="59.62" rx="4.769" fill="#4f46e5"/>
  <path d="M 47.69 5.962 L 23.85 31 L 47.69 56.04" fill="none" stroke="#14b8a6" stroke-width="11.92" stroke-linecap="round" stroke-linejoin="round"/>
  <path d="M2.9296875 0.0V-29.1015625H8.14453125V-20.46875L8.06640625 -14.23828125Q9.08203125 -15.80078125 10.21484375 -17.265625Q11.34765625 -18.73046875 12.7734375 -20.390625L20.41015625 -29.1015625H26.89453125L15.72265625 -16.50390625L27.08984375 0.0H20.9375L12.109375 -13.046875L8.14453125 -8.73046875V0.0Z" transform="translate(68.72,35.29)" fill="#0f172a"/>
  <path d="M39.2109375 0.44921875Q36.02734375 0.44921875 33.68359375 -0.966796875Q31.33984375 -2.3828125 30.060546875 -4.912109375Q28.78125 -7.44140625 28.78125 -10.80078125Q28.78125 -14.19921875 30.060546875 -16.748046875Q31.33984375 -19.296875 33.68359375 -20.703125Q36.02734375 -22.109375 39.2109375 -22.109375Q42.39453125 -22.109375 44.73828125 -20.703125Q47.08203125 -19.296875 48.37109375 -16.748046875Q49.66015625 -14.19921875 49.66015625 -10.80078125Q49.66015625 -7.44140625 48.37109375 -4.912109375Q47.08203125 -2.3828125 44.73828125 -0.966796875Q42.39453125 0.44921875 39.2109375 0.44921875ZM39.2109375 -3.671875Q40.98828125 -3.671875 42.16015625 -4.62890625Q43.33203125 -5.5859375 43.91796875 -7.20703125Q44.50390625 -8.828125 44.50390625 -10.8203125Q44.50390625 -12.83203125 43.91796875 -14.453125Q43.33203125 -16.07421875 42.16015625 -17.03125Q40.98828125 -17.98828125 39.2109375 -17.98828125Q37.453125 -17.98828125 36.28125 -17.03125Q35.109375 -16.07421875 34.533203125 -14.453125Q33.95703125 -12.83203125 33.95703125 -10.8203125Q33.95703125 -8.828125 34.533203125 -7.20703125Q35.109375 -5.5859375 36.28125 -4.62890625Q37.453125 -3.671875 39.2109375 -3.671875Z" transform="translate(68.72,35.29)" fill="#0f172a"/>
  <path d="M54.59375 0.0V-29.1015625H59.671875V-13.02734375H60.04296875L67.9140625 -21.8359375H73.87109375L65.4140625 -12.40234375L74.37890625 0.0H68.28515625L61.546875 -9.35546875L59.671875 -7.34375V0.0Z" transform="translate(68.72,35.29)" fill="#0f172a"/>
  <path d="M85.34765625 0.2734375Q81.96875 0.2734375 79.91796875 -1.875Q77.8671875 -4.0234375 77.8671875 -7.94921875V-21.8359375H82.9453125V-8.73046875Q82.9453125 -6.54296875 84.087890625 -5.29296875Q85.23046875 -4.04296875 87.22265625 -4.04296875Q89.25390625 -4.04296875 90.5625 -5.3515625Q91.87109375 -6.66015625 91.87109375 -9.04296875V-21.8359375H96.96875V0.0H92.14453125L92.10546875 -4.375Q90.15234375 0.2734375 85.34765625 0.2734375Z" transform="translate(68.72,35.29)" fill="#0f172a"/>
  <path d="M108.953125 0.44921875Q106.8828125 0.44921875 105.22265625 -0.302734375Q103.5625 -1.0546875 102.60546875 -2.51953125Q101.6484375 -3.984375 101.6484375 -6.1328125Q101.6484375 -8.59375 102.849609375 -9.951171875Q104.05078125 -11.30859375 105.955078125 -11.923828125Q107.859375 -12.5390625 109.96875 -12.75390625Q112.8203125 -13.06640625 114.08984375 -13.330078125Q115.359375 -13.59375 115.359375 -14.7265625V-14.82421875Q115.359375 -16.42578125 114.3828125 -17.314453125Q113.40625 -18.203125 111.55078125 -18.203125Q109.63671875 -18.203125 108.50390625 -17.36328125Q107.37109375 -16.5234375 106.98046875 -15.44921875L102.2734375 -16.40625Q103.23046875 -19.296875 105.740234375 -20.703125Q108.25 -22.109375 111.53125 -22.109375Q113.07421875 -22.109375 114.646484375 -21.748046875Q116.21875 -21.38671875 117.52734375 -20.537109375Q118.8359375 -19.6875 119.63671875 -18.232421875Q120.4375 -16.77734375 120.4375 -14.58984375V0.0H115.57421875V-3.0078125H115.37890625Q114.65625 -1.6015625 113.07421875 -0.576171875Q111.4921875 0.44921875 108.953125 0.44921875ZM110.26171875 -3.3203125Q112.60546875 -3.3203125 114.001953125 -4.66796875Q115.3984375 -6.015625 115.3984375 -7.83203125V-10.41015625Q115.046875 -10.13671875 114.1484375 -9.931640625Q113.25 -9.7265625 112.244140625 -9.580078125Q111.23828125 -9.43359375 110.57421875 -9.3359375Q108.85546875 -9.1015625 107.712890625 -8.3984375Q106.5703125 -7.6953125 106.5703125 -6.19140625Q106.5703125 -4.78515625 107.60546875 -4.052734375Q108.640625 -3.3203125 110.26171875 -3.3203125Z" transform="translate(68.72,35.29)" fill="#0f172a"/>
  <path d="M2.874755859375 0.15869140625Q2.227783203125 0.15869140625 1.6998291015625 -0.08544921875Q1.171875 -0.32958984375 0.860595703125 -0.799560546875Q0.54931640625 -1.26953125 0.54931640625 -1.94091796875Q0.54931640625 -2.52685546875 0.78125 -2.89306640625Q1.01318359375 -3.25927734375 1.4007568359375 -3.4698486328125Q1.788330078125 -3.680419921875 2.25830078125 -3.7841796875Q2.728271484375 -3.887939453125 3.204345703125 -3.948974609375Q3.814697265625 -4.0283203125 4.19921875 -4.071044921875Q4.583740234375 -4.11376953125 4.7698974609375 -4.217529296875Q4.9560546875 -4.3212890625 4.9560546875 -4.571533203125V-4.608154296875Q4.9560546875 -5.242919921875 4.595947265625 -5.5938720703125Q4.23583984375 -5.94482421875 3.52783203125 -5.94482421875Q2.789306640625 -5.94482421875 2.374267578125 -5.6243896484375Q1.959228515625 -5.303955078125 1.800537109375 -4.94384765625L0.74462890625 -5.291748046875Q1.007080078125 -5.914306640625 1.45263671875 -6.2652587890625Q1.898193359375 -6.6162109375 2.435302734375 -6.7626953125Q2.972412109375 -6.9091796875 3.497314453125 -6.9091796875Q3.839111328125 -6.9091796875 4.2755126953125 -6.8267822265625Q4.7119140625 -6.744384765625 5.1177978515625 -6.500244140625Q5.523681640625 -6.256103515625 5.7891845703125 -5.7769775390625Q6.0546875 -5.2978515625 6.0546875 -4.498291015625V0.0H4.974365234375V-0.927734375H4.901123046875Q4.78515625 -0.689697265625 4.52880859375 -0.4364013671875Q4.2724609375 -0.18310546875 3.863525390625 -0.01220703125Q3.45458984375 0.15869140625 2.874755859375 0.15869140625ZM3.06396484375 -0.811767578125Q3.67431640625 -0.811767578125 4.095458984375 -1.0498046875Q4.5166015625 -1.287841796875 4.736328125 -1.6693115234375Q4.9560546875 -2.05078125 4.9560546875 -2.4658203125V-3.411865234375Q4.888916015625 -3.33251953125 4.6630859375 -3.2684326171875Q4.437255859375 -3.204345703125 4.1473388671875 -3.155517578125Q3.857421875 -3.106689453125 3.5858154296875 -3.0731201171875Q3.314208984375 -3.03955078125 3.155517578125 -3.021240234375Q2.7587890625 -2.972412109375 2.4139404296875 -2.8533935546875Q2.069091796875 -2.734375 1.861572265625 -2.5054931640625Q1.654052734375 -2.276611328125 1.654052734375 -1.885986328125Q1.654052734375 -1.35498046875 2.0538330078125 -1.0833740234375Q2.45361328125 -0.811767578125 3.06396484375 -0.811767578125Z" transform="translate(71.1,53.26)" fill="#475569"/>
  <path d="M12.0990234375 2.55126953125V-6.82373046875H13.16103515625V-5.731201171875H13.28310546875Q13.399072265625 -5.914306640625 13.606591796875 -6.1920166015625Q13.814111328125 -6.4697265625 14.204736328125 -6.689453125Q14.595361328125 -6.9091796875 15.26064453125 -6.9091796875Q16.11513671875 -6.9091796875 16.7651611328125 -6.48193359375Q17.415185546875 -6.0546875 17.7844482421875 -5.2642822265625Q18.1537109375 -4.473876953125 18.1537109375 -3.3935546875Q18.1537109375 -2.30712890625 17.7875 -1.513671875Q17.4212890625 -0.72021484375 16.7712646484375 -0.286865234375Q16.121240234375 0.146484375 15.266748046875 0.146484375Q14.619775390625 0.146484375 14.223046875 -0.0762939453125Q13.826318359375 -0.299072265625 13.6126953125 -0.5828857421875Q13.399072265625 -0.86669921875 13.28310546875 -1.055908203125H13.19765625V2.55126953125ZM15.101953125 -0.836181640625Q15.742822265625 -0.836181640625 16.1731201171875 -1.1810302734375Q16.60341796875 -1.52587890625 16.8200927734375 -2.1087646484375Q17.036767578125 -2.691650390625 17.036767578125 -3.40576171875Q17.036767578125 -4.11376953125 16.82314453125 -4.6844482421875Q16.609521484375 -5.255126953125 16.1792236328125 -5.5908203125Q15.74892578125 -5.926513671875 15.101953125 -5.926513671875Q14.16201171875 -5.926513671875 13.67373046875 -5.230712890625Q13.18544921875 -4.534912109375 13.18544921875 -3.40576171875Q13.18544921875 -2.264404296875 13.679833984375 -1.55029296875Q14.17421875 -0.836181640625 15.101953125 -0.836181640625Z" transform="translate(71.1,53.26)" fill="#475569"/>
  <path d="M22.921484375 0.146484375Q21.93271484375 0.146484375 21.2155517578125 -0.29296875Q20.498388671875 -0.732421875 20.1108154296875 -1.519775390625Q19.7232421875 -2.30712890625 19.7232421875 -3.35693359375Q19.7232421875 -4.40673828125 20.10166015625 -5.206298828125Q20.480078125 -6.005859375 21.1728271484375 -6.45751953125Q21.865576171875 -6.9091796875 22.793310546875 -6.9091796875Q23.3365234375 -6.9091796875 23.8644775390625 -6.7291259765625Q24.392431640625 -6.549072265625 24.8227294921875 -6.1492919921875Q25.25302734375 -5.74951171875 25.509375 -5.096435546875Q25.76572265625 -4.443359375 25.76572265625 -3.497314453125V-3.03955078125H20.83408203125Q20.876806640625 -1.971435546875 21.4474853515625 -1.4007568359375Q22.0181640625 -0.830078125 22.927587890625 -0.830078125Q23.5318359375 -0.830078125 23.9682373046875 -1.0955810546875Q24.404638671875 -1.361083984375 24.59384765625 -1.8798828125L25.655859375 -1.5869140625Q25.417822265625 -0.811767578125 24.6945556640625 -0.3326416015625Q23.9712890625 0.146484375 22.921484375 0.146484375ZM20.840185546875 -3.96728515625H24.648779296875Q24.56943359375 -4.840087890625 24.1025146484375 -5.3863525390625Q23.635595703125 -5.9326171875 22.793310546875 -5.9326171875Q22.207373046875 -5.9326171875 21.7831787109375 -5.657958984375Q21.358984375 -5.38330078125 21.11484375 -4.937744140625Q20.870703125 -4.4921875 20.840185546875 -3.96728515625Z" transform="translate(71.1,53.26)" fill="#475569"/>
  <path d="M27.6404296875 0.0V-6.82373046875H28.70244140625V-5.77392578125H28.77568359375Q28.964892578125 -6.292724609375 29.4501220703125 -6.6070556640625Q29.9353515625 -6.92138671875 30.545703125 -6.92138671875Q30.6677734375 -6.92138671875 30.8356201171875 -6.915283203125Q31.003466796875 -6.9091796875 31.101123046875 -6.903076171875V-5.79833984375Q31.052294921875 -5.810546875 30.856982421875 -5.8349609375Q30.661669921875 -5.859375 30.441943359375 -5.859375Q29.70341796875 -5.859375 29.221240234375 -5.4107666015625Q28.7390625 -4.962158203125 28.7390625 -4.2724609375V0.0Z" transform="translate(71.1,53.26)" fill="#475569"/>
  <path d="M34.965576171875 0.146484375Q33.915771484375 0.146484375 33.219970703125 -0.311279296875Q32.524169921875 -0.76904296875 32.341064453125 -1.654052734375L33.384765625 -1.904296875Q33.53125 -1.3427734375 33.9371337890625 -1.080322265625Q34.343017578125 -0.81787109375 34.953369140625 -0.81787109375Q35.66748046875 -0.81787109375 36.0916748046875 -1.123046875Q36.515869140625 -1.42822265625 36.515869140625 -1.849365234375Q36.515869140625 -2.55126953125 35.514892578125 -2.789306640625L34.379638671875 -3.057861328125Q32.548583984375 -3.4912109375 32.548583984375 -4.91943359375Q32.548583984375 -5.50537109375 32.878173828125 -5.9539794921875Q33.207763671875 -6.402587890625 33.7784423828125 -6.6558837890625Q34.34912109375 -6.9091796875 35.075439453125 -6.9091796875Q36.13134765625 -6.9091796875 36.7142333984375 -6.4483642578125Q37.297119140625 -5.987548828125 37.529052734375 -5.267333984375L36.5341796875 -5.010986328125Q36.393798828125 -5.377197265625 36.0672607421875 -5.67626953125Q35.74072265625 -5.975341796875 35.08154296875 -5.975341796875Q34.47119140625 -5.975341796875 34.0653076171875 -5.694580078125Q33.659423828125 -5.413818359375 33.659423828125 -4.986572265625Q33.659423828125 -4.608154296875 33.93408203125 -4.3792724609375Q34.208740234375 -4.150390625 34.806884765625 -4.010009765625L35.83837890625 -3.765869140625Q36.76611328125 -3.546142578125 37.211669921875 -3.0853271484375Q37.6572265625 -2.62451171875 37.6572265625 -1.922607421875Q37.6572265625 -1.324462890625 37.3184814453125 -0.8575439453125Q36.979736328125 -0.390625 36.3724365234375 -0.1220703125Q35.76513671875 0.146484375 34.965576171875 0.146484375Z" transform="translate(71.1,53.26)" fill="#475569"/>
  <path d="M42.321240234375 0.146484375Q41.393505859375 0.146484375 40.6946533203125 -0.29296875Q39.99580078125 -0.732421875 39.60517578125 -1.52587890625Q39.21455078125 -2.3193359375 39.21455078125 -3.369140625Q39.21455078125 -4.437255859375 39.60517578125 -5.2337646484375Q39.99580078125 -6.0302734375 40.6946533203125 -6.4697265625Q41.393505859375 -6.9091796875 42.321240234375 -6.9091796875Q43.255078125 -6.9091796875 43.956982421875 -6.4697265625Q44.65888671875 -6.0302734375 45.04951171875 -5.2337646484375Q45.44013671875 -4.437255859375 45.44013671875 -3.369140625Q45.44013671875 -2.3193359375 45.04951171875 -1.52587890625Q44.65888671875 -0.732421875 43.956982421875 -0.29296875Q43.255078125 0.146484375 42.321240234375 0.146484375ZM42.321240234375 -0.836181640625Q43.0109375 -0.836181640625 43.456494140625 -1.190185546875Q43.90205078125 -1.544189453125 44.115673828125 -2.1209716796875Q44.329296875 -2.69775390625 44.329296875 -3.369140625Q44.329296875 -4.046630859375 44.115673828125 -4.6295166015625Q43.90205078125 -5.21240234375 43.456494140625 -5.5694580078125Q43.0109375 -5.926513671875 42.321240234375 -5.926513671875Q41.637646484375 -5.926513671875 41.198193359375 -5.5694580078125Q40.758740234375 -5.21240234375 40.5451171875 -4.632568359375Q40.331494140625 -4.052734375 40.331494140625 -3.369140625Q40.331494140625 -2.69775390625 40.5451171875 -2.1209716796875Q40.758740234375 -1.544189453125 41.198193359375 -1.190185546875Q41.637646484375 -0.836181640625 42.321240234375 -0.836181640625Z" transform="translate(71.1,53.26)" fill="#475569"/>
  <path d="M48.437890624999994 -4.08935546875V0.0H47.339257812499994V-6.82373046875H48.395166015624994L48.401269531249994 -5.560302734375Q48.730859374999994 -6.28662109375 49.264916992187494 -6.597900390625Q49.798974609374994 -6.9091796875 50.488671874999994 -6.9091796875Q51.526269531249994 -6.9091796875 52.161035156249994 -6.268310546875Q52.795800781249994 -5.62744140625 52.795800781249994 -4.33349609375V0.0H51.697167968749994V-4.241943359375Q51.697167968749994 -5.029296875 51.285180664062494 -5.474853515625Q50.873193359374994 -5.92041015625 50.159082031249994 -5.92041015625Q49.420556640624994 -5.92041015625 48.929223632812494 -5.4412841796875Q48.437890624999994 -4.962158203125 48.437890624999994 -4.08935546875Z" transform="translate(71.1,53.26)" fill="#475569"/>
  <path d="M56.93491210937499 0.15869140625Q56.28793945312499 0.15869140625 55.75998535156249 -0.08544921875Q55.23203124999999 -0.32958984375 54.92075195312499 -0.799560546875Q54.60947265624999 -1.26953125 54.60947265624999 -1.94091796875Q54.60947265624999 -2.52685546875 54.84140624999999 -2.89306640625Q55.07333984374999 -3.25927734375 55.46091308593749 -3.4698486328125Q55.84848632812499 -3.680419921875 56.31845703124999 -3.7841796875Q56.78842773437499 -3.887939453125 57.26450195312499 -3.948974609375Q57.87485351562499 -4.0283203125 58.25937499999999 -4.071044921875Q58.64389648437499 -4.11376953125 58.83005371093749 -4.217529296875Q59.01621093749999 -4.3212890625 59.01621093749999 -4.571533203125V-4.608154296875Q59.01621093749999 -5.242919921875 58.65610351562499 -5.5938720703125Q58.29599609374999 -5.94482421875 57.58798828124999 -5.94482421875Q56.84946289062499 -5.94482421875 56.43442382812499 -5.6243896484375Q56.01938476562499 -5.303955078125 55.86069335937499 -4.94384765625L54.80478515624999 -5.291748046875Q55.06723632812499 -5.914306640625 55.51279296874999 -6.2652587890625Q55.95834960937499 -6.6162109375 56.49545898437499 -6.7626953125Q57.03256835937499 -6.9091796875 57.55747070312499 -6.9091796875Q57.89926757812499 -6.9091796875 58.33566894531249 -6.8267822265625Q58.77207031249999 -6.744384765625 59.17795410156249 -6.500244140625Q59.58383789062499 -6.256103515625 59.84934082031249 -5.7769775390625Q60.11484374999999 -5.2978515625 60.11484374999999 -4.498291015625V0.0H59.03452148437499V-0.927734375H58.96127929687499Q58.84531249999999 -0.689697265625 58.58896484374999 -0.4364013671875Q58.33261718749999 -0.18310546875 57.92368164062499 -0.01220703125Q57.51474609374999 0.15869140625 56.93491210937499 0.15869140625ZM57.12412109374999 -0.811767578125Q57.73447265624999 -0.811767578125 58.15561523437499 -1.0498046875Q58.57675781249999 -1.287841796875 58.79648437499999 -1.6693115234375Q59.01621093749999 -2.05078125 59.01621093749999 -2.4658203125V-3.411865234375Q58.94907226562499 -3.33251953125 58.72324218749999 -3.2684326171875Q58.49741210937499 -3.204345703125 58.20749511718749 -3.155517578125Q57.91757812499999 -3.106689453125 57.64597167968749 -3.0731201171875Q57.37436523437499 -3.03955078125 57.21567382812499 -3.021240234375Q56.81894531249999 -2.972412109375 56.47409667968749 -2.8533935546875Q56.12924804687499 -2.734375 55.92172851562499 -2.5054931640625Q55.71420898437499 -2.276611328125 55.71420898437499 -1.885986328125Q55.71420898437499 -1.35498046875 56.11398925781249 -1.0833740234375Q56.51376953124999 -0.811767578125 57.12412109374999 -0.811767578125Z" transform="translate(71.1,53.26)" fill="#475569"/>
  <path d="M63.44218749999999 -9.09423828125V0.0H62.34355468749999V-9.09423828125Z" transform="translate(71.1,53.26)" fill="#475569"/>
  <path d="M68.83955078124998 0.0 72.14155273437498 -9.09423828125H73.48432617187498L76.82905273437498 0.0H75.60834960937498L74.69892578124998 -2.5390625H70.95136718749998L70.07246093749998 0.0ZM71.30537109374998 -3.55224609375H74.33881835937498L73.67963867187498 -5.3955078125Q73.51484374999998 -5.853271484375 73.30732421874998 -6.5155029296875Q73.09980468749998 -7.177734375 72.80683593749998 -8.16650390625Q72.51997070312498 -7.159423828125 72.30634765624998 -6.488037109375Q72.09272460937498 -5.816650390625 71.94624023437498 -5.3955078125Z" transform="translate(71.1,53.26)" fill="#475569"/>
  <path d="M79.70473632812498 -9.09423828125V0.0H78.54506835937498V-9.09423828125Z" transform="translate(71.1,53.26)" fill="#475569"/>
  <path d="M87.79374999999997 0.15869140625Q87.14677734374997 0.15869140625 86.61882324218747 -0.08544921875Q86.09086914062497 -0.32958984375 85.77958984374997 -0.799560546875Q85.46831054687497 -1.26953125 85.46831054687497 -1.94091796875Q85.46831054687497 -2.52685546875 85.70024414062497 -2.89306640625Q85.93217773437497 -3.25927734375 86.31975097656247 -3.4698486328125Q86.70732421874997 -3.680419921875 87.17729492187497 -3.7841796875Q87.64726562499997 -3.887939453125 88.12333984374997 -3.948974609375Q88.73369140624997 -4.0283203125 89.11821289062497 -4.071044921875Q89.50273437499997 -4.11376953125 89.68889160156247 -4.217529296875Q89.87504882812497 -4.3212890625 89.87504882812497 -4.571533203125V-4.608154296875Q89.87504882812497 -5.242919921875 89.51494140624997 -5.5938720703125Q89.15483398437497 -5.94482421875 88.44682617187497 -5.94482421875Q87.70830078124997 -5.94482421875 87.29326171874997 -5.6243896484375Q86.87822265624997 -5.303955078125 86.71953124999997 -4.94384765625L85.66362304687497 -5.291748046875Q85.92607421874997 -5.914306640625 86.37163085937497 -6.2652587890625Q86.81718749999997 -6.6162109375 87.35429687499997 -6.7626953125Q87.89140624999997 -6.9091796875 88.41630859374997 -6.9091796875Q88.75810546874997 -6.9091796875 89.19450683593747 -6.8267822265625Q89.63090820312497 -6.744384765625 90.03679199218747 -6.500244140625Q90.44267578124997 -6.256103515625 90.70817871093747 -5.7769775390625Q90.97368164062497 -5.2978515625 90.97368164062497 -4.498291015625V0.0H89.89335937499997V-0.927734375H89.82011718749997Q89.70415039062497 -0.689697265625 89.44780273437497 -0.4364013671875Q89.19145507812497 -0.18310546875 88.78251953124997 -0.01220703125Q88.37358398437497 0.15869140625 87.79374999999997 0.15869140625ZM87.98295898437497 -0.811767578125Q88.59331054687497 -0.811767578125 89.01445312499997 -1.0498046875Q89.43559570312497 -1.287841796875 89.65532226562497 -1.6693115234375Q89.87504882812497 -2.05078125 89.87504882812497 -2.4658203125V-3.411865234375Q89.80791015624997 -3.33251953125 89.58208007812497 -3.2684326171875Q89.35624999999997 -3.204345703125 89.06633300781247 -3.155517578125Q88.77641601562497 -3.106689453125 88.50480957031247 -3.0731201171875Q88.23320312499997 -3.03955078125 88.07451171874997 -3.021240234375Q87.67778320312497 -2.972412109375 87.33293457031247 -2.8533935546875Q86.98808593749997 -2.734375 86.78056640624997 -2.5054931640625Q86.57304687499997 -2.276611328125 86.57304687499997 -1.885986328125Q86.57304687499997 -1.35498046875 86.97282714843747 -1.0833740234375Q87.37260742187497 -0.811767578125 87.98295898437497 -0.811767578125Z" transform="translate(71.1,53.26)" fill="#475569"/>
  <path d="M95.52172851562497 0.146484375Q94.47192382812497 0.146484375 93.77612304687497 -0.311279296875Q93.08032226562497 -0.76904296875 92.89721679687497 -1.654052734375L93.94091796874997 -1.904296875Q94.08740234374997 -1.3427734375 94.49328613281247 -1.080322265625Q94.89916992187497 -0.81787109375 95.50952148437497 -0.81787109375Q96.22363281249997 -0.81787109375 96.64782714843747 -1.123046875Q97.07202148437497 -1.42822265625 97.07202148437497 -1.849365234375Q97.07202148437497 -2.55126953125 96.07104492187497 -2.789306640625L94.93579101562497 -3.057861328125Q93.10473632812497 -3.4912109375 93.10473632812497 -4.91943359375Q93.10473632812497 -5.50537109375 93.43432617187497 -5.9539794921875Q93.76391601562497 -6.402587890625 94.33459472656247 -6.6558837890625Q94.90527343749997 -6.9091796875 95.63159179687497 -6.9091796875Q96.68749999999997 -6.9091796875 97.27038574218747 -6.4483642578125Q97.85327148437497 -5.987548828125 98.08520507812497 -5.267333984375L97.09033203124997 -5.010986328125Q96.94995117187497 -5.377197265625 96.62341308593747 -5.67626953125Q96.29687499999997 -5.975341796875 95.63769531249997 -5.975341796875Q95.02734374999997 -5.975341796875 94.62145996093747 -5.694580078125Q94.21557617187497 -5.413818359375 94.21557617187497 -4.986572265625Q94.21557617187497 -4.608154296875 94.49023437499997 -4.3792724609375Q94.76489257812497 -4.150390625 95.36303710937497 -4.010009765625L96.39453124999997 -3.765869140625Q97.32226562499997 -3.546142578125 97.76782226562497 -3.0853271484375Q98.21337890624997 -2.62451171875 98.21337890624997 -1.922607421875Q98.21337890624997 -1.324462890625 97.87463378906247 -0.8575439453125Q97.53588867187497 -0.390625 96.92858886718747 -0.1220703125Q96.32128906249997 0.146484375 95.52172851562497 0.146484375Z" transform="translate(71.1,53.26)" fill="#475569"/>
  <path d="M102.41962890624997 0.146484375Q101.36982421874997 0.146484375 100.67402343749997 -0.311279296875Q99.97822265624997 -0.76904296875 99.79511718749997 -1.654052734375L100.83881835937497 -1.904296875Q100.98530273437497 -1.3427734375 101.39118652343747 -1.080322265625Q101.79707031249997 -0.81787109375 102.40742187499997 -0.81787109375Q103.12153320312497 -0.81787109375 103.54572753906247 -1.123046875Q103.96992187499997 -1.42822265625 103.96992187499997 -1.849365234375Q103.96992187499997 -2.55126953125 102.96894531249997 -2.789306640625L101.83369140624997 -3.057861328125Q100.00263671874997 -3.4912109375 100.00263671874997 -4.91943359375Q100.00263671874997 -5.50537109375 100.33222656249997 -5.9539794921875Q100.66181640624997 -6.402587890625 101.23249511718747 -6.6558837890625Q101.80317382812497 -6.9091796875 102.52949218749997 -6.9091796875Q103.58540039062497 -6.9091796875 104.16828613281247 -6.4483642578125Q104.75117187499997 -5.987548828125 104.98310546874997 -5.267333984375L103.98823242187497 -5.010986328125Q103.84785156249997 -5.377197265625 103.52131347656247 -5.67626953125Q103.19477539062497 -5.975341796875 102.53559570312497 -5.975341796875Q101.92524414062497 -5.975341796875 101.51936035156247 -5.694580078125Q101.11347656249997 -5.413818359375 101.11347656249997 -4.986572265625Q101.11347656249997 -4.608154296875 101.38813476562497 -4.3792724609375Q101.66279296874997 -4.150390625 102.26093749999997 -4.010009765625L103.29243164062497 -3.765869140625Q104.22016601562497 -3.546142578125 104.66572265624997 -3.0853271484375Q105.11127929687497 -2.62451171875 105.11127929687497 -1.922607421875Q105.11127929687497 -1.324462890625 104.77253417968747 -0.8575439453125Q104.43378906249997 -0.390625 103.82648925781247 -0.1220703125Q103.21918945312497 0.146484375 102.41962890624997 0.146484375Z" transform="translate(71.1,53.26)" fill="#475569"/>
  <path d="M106.99819335937497 0.0V-6.82373046875H108.09682617187497V0.0ZM107.55361328124997 -7.940673828125Q107.24233398437497 -7.940673828125 107.01650390624997 -8.154296875Q106.79067382812497 -8.367919921875 106.79067382812497 -8.6669921875Q106.79067382812497 -8.97216796875 107.01650390624997 -9.1827392578125Q107.24233398437497 -9.393310546875 107.55361328124997 -9.393310546875Q107.87099609374997 -9.393310546875 108.09682617187497 -9.1827392578125Q108.32265624999997 -8.97216796875 108.32265624999997 -8.6669921875Q108.32265624999997 -8.367919921875 108.09682617187497 -8.154296875Q107.87099609374997 -7.940673828125 107.55361328124997 -7.940673828125Z" transform="translate(71.1,53.26)" fill="#475569"/>
  <path d="M112.64487304687496 0.146484375Q111.59506835937496 0.146484375 110.89926757812496 -0.311279296875Q110.20346679687496 -0.76904296875 110.02036132812496 -1.654052734375L111.06406249999996 -1.904296875Q111.21054687499996 -1.3427734375 111.61643066406246 -1.080322265625Q112.02231445312496 -0.81787109375 112.63266601562496 -0.81787109375Q113.34677734374996 -0.81787109375 113.77097167968746 -1.123046875Q114.19516601562496 -1.42822265625 114.19516601562496 -1.849365234375Q114.19516601562496 -2.55126953125 113.19418945312496 -2.789306640625L112.05893554687496 -3.057861328125Q110.22788085937496 -3.4912109375 110.22788085937496 -4.91943359375Q110.22788085937496 -5.50537109375 110.55747070312496 -5.9539794921875Q110.88706054687496 -6.402587890625 111.45773925781246 -6.6558837890625Q112.02841796874996 -6.9091796875 112.75473632812496 -6.9091796875Q113.81064453124996 -6.9091796875 114.39353027343746 -6.4483642578125Q114.97641601562496 -5.987548828125 115.20834960937496 -5.267333984375L114.21347656249996 -5.010986328125Q114.07309570312496 -5.377197265625 113.74655761718746 -5.67626953125Q113.42001953124996 -5.975341796875 112.76083984374996 -5.975341796875Q112.15048828124996 -5.975341796875 111.74460449218746 -5.694580078125Q111.33872070312496 -5.413818359375 111.33872070312496 -4.986572265625Q111.33872070312496 -4.608154296875 111.61337890624996 -4.3792724609375Q111.88803710937496 -4.150390625 112.48618164062496 -4.010009765625L113.51767578124996 -3.765869140625Q114.44541015624996 -3.546142578125 114.89096679687496 -3.0853271484375Q115.33652343749996 -2.62451171875 115.33652343749996 -1.922607421875Q115.33652343749996 -1.324462890625 114.99777832031246 -0.8575439453125Q114.65903320312496 -0.390625 114.05173339843746 -0.1220703125Q113.44443359374996 0.146484375 112.64487304687496 0.146484375Z" transform="translate(71.1,53.26)" fill="#475569"/>
  <path d="M119.90898437499996 -6.82373046875V-5.8837890625H118.50517578124996V-1.77001953125Q118.50517578124996 -1.312255859375 118.69133300781246 -1.1016845703125Q118.87749023437496 -0.89111328125 119.31083984374996 -0.89111328125Q119.41459960937496 -0.89111328125 119.57634277343746 -0.91552734375Q119.73808593749996 -0.93994140625 119.87236328124996 -0.96435546875L120.09819335937496 -0.03662109375Q119.92729492187496 0.0244140625 119.71062011718746 0.054931640625Q119.49394531249996 0.08544921875 119.28032226562496 0.08544921875Q118.39531249999996 0.08544921875 117.90092773437496 -0.3814697265625Q117.40654296874996 -0.848388671875 117.40654296874996 -1.6845703125V-5.8837890625H116.38115234374996V-6.82373046875H117.40654296874996V-8.447265625H118.50517578124996V-6.82373046875Z" transform="translate(71.1,53.26)" fill="#475569"/>
  <path d="M123.58422851562496 0.15869140625Q122.93725585937496 0.15869140625 122.40930175781246 -0.08544921875Q121.88134765624996 -0.32958984375 121.57006835937496 -0.799560546875Q121.25878906249996 -1.26953125 121.25878906249996 -1.94091796875Q121.25878906249996 -2.52685546875 121.49072265624996 -2.89306640625Q121.72265624999996 -3.25927734375 122.11022949218746 -3.4698486328125Q122.49780273437496 -3.680419921875 122.96777343749996 -3.7841796875Q123.43774414062496 -3.887939453125 123.91381835937496 -3.948974609375Q124.52416992187496 -4.0283203125 124.90869140624996 -4.071044921875Q125.29321289062496 -4.11376953125 125.47937011718746 -4.217529296875Q125.66552734374996 -4.3212890625 125.66552734374996 -4.571533203125V-4.608154296875Q125.66552734374996 -5.242919921875 125.30541992187496 -5.5938720703125Q124.94531249999996 -5.94482421875 124.23730468749996 -5.94482421875Q123.49877929687496 -5.94482421875 123.08374023437496 -5.6243896484375Q122.66870117187496 -5.303955078125 122.51000976562496 -4.94384765625L121.45410156249996 -5.291748046875Q121.71655273437496 -5.914306640625 122.16210937499996 -6.2652587890625Q122.60766601562496 -6.6162109375 123.14477539062496 -6.7626953125Q123.68188476562496 -6.9091796875 124.20678710937496 -6.9091796875Q124.54858398437496 -6.9091796875 124.98498535156246 -6.8267822265625Q125.42138671874996 -6.744384765625 125.82727050781246 -6.500244140625Q126.23315429687496 -6.256103515625 126.49865722656246 -5.7769775390625Q126.76416015624996 -5.2978515625 126.76416015624996 -4.498291015625V0.0H125.68383789062496V-0.927734375H125.61059570312496Q125.49462890624996 -0.689697265625 125.23828124999996 -0.4364013671875Q124.98193359374996 -0.18310546875 124.57299804687496 -0.01220703125Q124.16406249999996 0.15869140625 123.58422851562496 0.15869140625ZM123.77343749999996 -0.811767578125Q124.38378906249996 -0.811767578125 124.80493164062496 -1.0498046875Q125.22607421874996 -1.287841796875 125.44580078124996 -1.6693115234375Q125.66552734374996 -2.05078125 125.66552734374996 -2.4658203125V-3.411865234375Q125.59838867187496 -3.33251953125 125.37255859374996 -3.2684326171875Q125.14672851562496 -3.204345703125 124.85681152343746 -3.155517578125Q124.56689453124996 -3.106689453125 124.29528808593746 -3.0731201171875Q124.02368164062496 -3.03955078125 123.86499023437496 -3.021240234375Q123.46826171874996 -2.972412109375 123.12341308593746 -2.8533935546875Q122.77856445312496 -2.734375 122.57104492187496 -2.5054931640625Q122.36352539062496 -2.276611328125 122.36352539062496 -1.885986328125Q122.36352539062496 -1.35498046875 122.76330566406246 -1.0833740234375Q123.16308593749996 -0.811767578125 123.77343749999996 -0.811767578125Z" transform="translate(71.1,53.26)" fill="#475569"/>
  <path d="M130.09150390624995 -4.08935546875V0.0H128.99287109374995V-6.82373046875H130.04877929687495L130.05488281249995 -5.560302734375Q130.38447265624995 -6.28662109375 130.91853027343745 -6.597900390625Q131.45258789062495 -6.9091796875 132.14228515624995 -6.9091796875Q133.17988281249995 -6.9091796875 133.81464843749995 -6.268310546875Q134.44941406249995 -5.62744140625 134.44941406249995 -4.33349609375V0.0H133.35078124999995V-4.241943359375Q133.35078124999995 -5.029296875 132.93879394531245 -5.474853515625Q132.52680664062495 -5.92041015625 131.81269531249995 -5.92041015625Q131.07416992187495 -5.92041015625 130.58283691406245 -5.4412841796875Q130.09150390624995 -4.962158203125 130.09150390624995 -4.08935546875Z" transform="translate(71.1,53.26)" fill="#475569"/>
  <path d="M139.36367187499997 -6.82373046875V-5.8837890625H137.95986328124997V-1.77001953125Q137.95986328124997 -1.312255859375 138.14602050781247 -1.1016845703125Q138.33217773437497 -0.89111328125 138.76552734374997 -0.89111328125Q138.86928710937497 -0.89111328125 139.03103027343747 -0.91552734375Q139.19277343749997 -0.93994140625 139.32705078124997 -0.96435546875L139.55288085937497 -0.03662109375Q139.38198242187497 0.0244140625 139.16530761718747 0.054931640625Q138.94863281249997 0.08544921875 138.73500976562497 0.08544921875Q137.84999999999997 0.08544921875 137.35561523437497 -0.3814697265625Q136.86123046874997 -0.848388671875 136.86123046874997 -1.6845703125V-5.8837890625H135.83583984374997V-6.82373046875H136.86123046874997V-8.447265625H137.95986328124997V-6.82373046875Z" transform="translate(71.1,53.26)" fill="#475569"/>
  <path d="M147.56865234375 -6.82373046875V-5.8837890625H146.16484375V-1.77001953125Q146.16484375 -1.312255859375 146.3510009765625 -1.1016845703125Q146.537158203125 -0.89111328125 146.9705078125 -0.89111328125Q147.074267578125 -0.89111328125 147.2360107421875 -0.91552734375Q147.39775390625 -0.93994140625 147.53203125 -0.96435546875L147.757861328125 -0.03662109375Q147.586962890625 0.0244140625 147.3702880859375 0.054931640625Q147.15361328125 0.08544921875 146.939990234375 0.08544921875Q146.05498046875 0.08544921875 145.560595703125 -0.3814697265625Q145.0662109375 -0.848388671875 145.0662109375 -1.6845703125V-5.8837890625H144.0408203125V-6.82373046875H145.0662109375V-8.447265625H146.16484375V-6.82373046875Z" transform="translate(71.1,53.26)" fill="#475569"/>
  <path d="M150.37109375 -4.08935546875V0.0H149.2724609375V-9.09423828125H150.37109375V-5.6396484375Q150.706787109375 -6.3232421875 151.2286376953125 -6.6162109375Q151.75048828125 -6.9091796875 152.421875 -6.9091796875Q153.45947265625 -6.9091796875 154.0972900390625 -6.268310546875Q154.735107421875 -5.62744140625 154.735107421875 -4.33349609375V0.0H153.63037109375V-4.241943359375Q153.63037109375 -5.029296875 153.2183837890625 -5.474853515625Q152.806396484375 -5.92041015625 152.09228515625 -5.92041015625Q151.353759765625 -5.92041015625 150.8624267578125 -5.4412841796875Q150.37109375 -4.962158203125 150.37109375 -4.08935546875Z" transform="translate(71.1,53.26)" fill="#475569"/>
  <path d="M158.87421875 0.15869140625Q158.22724609375 0.15869140625 157.6992919921875 -0.08544921875Q157.171337890625 -0.32958984375 156.86005859375 -0.799560546875Q156.548779296875 -1.26953125 156.548779296875 -1.94091796875Q156.548779296875 -2.52685546875 156.780712890625 -2.89306640625Q157.012646484375 -3.25927734375 157.4002197265625 -3.4698486328125Q157.78779296875 -3.680419921875 158.257763671875 -3.7841796875Q158.727734375 -3.887939453125 159.20380859375 -3.948974609375Q159.81416015625 -4.0283203125 160.198681640625 -4.071044921875Q160.583203125 -4.11376953125 160.7693603515625 -4.217529296875Q160.955517578125 -4.3212890625 160.955517578125 -4.571533203125V-4.608154296875Q160.955517578125 -5.242919921875 160.59541015625 -5.5938720703125Q160.235302734375 -5.94482421875 159.527294921875 -5.94482421875Q158.78876953125 -5.94482421875 158.37373046875 -5.6243896484375Q157.95869140625 -5.303955078125 157.8 -4.94384765625L156.744091796875 -5.291748046875Q157.00654296875 -5.914306640625 157.452099609375 -6.2652587890625Q157.89765625 -6.6162109375 158.434765625 -6.7626953125Q158.971875 -6.9091796875 159.49677734375 -6.9091796875Q159.83857421875 -6.9091796875 160.2749755859375 -6.8267822265625Q160.711376953125 -6.744384765625 161.1172607421875 -6.500244140625Q161.52314453125 -6.256103515625 161.7886474609375 -5.7769775390625Q162.054150390625 -5.2978515625 162.054150390625 -4.498291015625V0.0H160.973828125V-0.927734375H160.9005859375Q160.784619140625 -0.689697265625 160.528271484375 -0.4364013671875Q160.271923828125 -0.18310546875 159.86298828125 -0.01220703125Q159.454052734375 0.15869140625 158.87421875 0.15869140625ZM159.063427734375 -0.811767578125Q159.673779296875 -0.811767578125 160.094921875 -1.0498046875Q160.516064453125 -1.287841796875 160.735791015625 -1.6693115234375Q160.955517578125 -2.05078125 160.955517578125 -2.4658203125V-3.411865234375Q160.88837890625 -3.33251953125 160.662548828125 -3.2684326171875Q160.43671875 -3.204345703125 160.1468017578125 -3.155517578125Q159.856884765625 -3.106689453125 159.5852783203125 -3.0731201171875Q159.313671875 -3.03955078125 159.15498046875 -3.021240234375Q158.758251953125 -2.972412109375 158.4134033203125 -2.8533935546875Q158.0685546875 -2.734375 157.86103515625 -2.5054931640625Q157.653515625 -2.276611328125 157.653515625 -1.885986328125Q157.653515625 -1.35498046875 158.0532958984375 -1.0833740234375Q158.453076171875 -0.811767578125 159.063427734375 -0.811767578125Z" transform="translate(71.1,53.26)" fill="#475569"/>
  <path d="M166.96840820312502 -6.82373046875V-5.8837890625H165.56459960937502V-1.77001953125Q165.56459960937502 -1.312255859375 165.75075683593752 -1.1016845703125Q165.93691406250002 -0.89111328125 166.37026367187502 -0.89111328125Q166.47402343750002 -0.89111328125 166.63576660156252 -0.91552734375Q166.79750976562502 -0.93994140625 166.93178710937502 -0.96435546875L167.15761718750002 -0.03662109375Q166.98671875000002 0.0244140625 166.77004394531252 0.054931640625Q166.55336914062502 0.08544921875 166.33974609375002 0.08544921875Q165.45473632812502 0.08544921875 164.96035156250002 -0.3814697265625Q164.46596679687502 -0.848388671875 164.46596679687502 -1.6845703125V-5.8837890625H163.44057617187502V-6.82373046875H164.46596679687502V-8.447265625H165.56459960937502V-6.82373046875Z" transform="translate(71.1,53.26)" fill="#475569"/>
  <path d="M175.35649414062505 0.146484375Q174.36772460937505 0.146484375 173.65056152343755 -0.29296875Q172.93339843750005 -0.732421875 172.54582519531255 -1.519775390625Q172.15825195312505 -2.30712890625 172.15825195312505 -3.35693359375Q172.15825195312505 -4.40673828125 172.53666992187505 -5.206298828125Q172.91508789062505 -6.005859375 173.60783691406255 -6.45751953125Q174.30058593750005 -6.9091796875 175.22832031250005 -6.9091796875Q175.77153320312505 -6.9091796875 176.29948730468755 -6.7291259765625Q176.82744140625005 -6.549072265625 177.25773925781255 -6.1492919921875Q177.68803710937505 -5.74951171875 177.94438476562505 -5.096435546875Q178.20073242187505 -4.443359375 178.20073242187505 -3.497314453125V-3.03955078125H173.26909179687505Q173.31181640625005 -1.971435546875 173.88249511718755 -1.4007568359375Q174.45317382812505 -0.830078125 175.36259765625005 -0.830078125Q175.96684570312505 -0.830078125 176.40324707031255 -1.0955810546875Q176.83964843750005 -1.361083984375 177.02885742187505 -1.8798828125L178.09086914062505 -1.5869140625Q177.85283203125005 -0.811767578125 177.12956542968755 -0.3326416015625Q176.40629882812505 0.146484375 175.35649414062505 0.146484375ZM173.27519531250005 -3.96728515625H177.08378906250005Q177.00444335937505 -4.840087890625 176.53752441406255 -5.3863525390625Q176.07060546875005 -5.9326171875 175.22832031250005 -5.9326171875Q174.64238281250005 -5.9326171875 174.21818847656255 -5.657958984375Q173.79399414062505 -5.38330078125 173.54985351562505 -4.937744140625Q173.30571289062505 -4.4921875 173.27519531250005 -3.96728515625Z" transform="translate(71.1,53.26)" fill="#475569"/>
  <path d="M179.22705078125006 0.0 181.62573242187506 -3.50341796875 179.36743164062506 -6.82373046875H180.64916992187506L181.49755859375006 -5.499267578125Q181.72949218750006 -5.133056640625 181.91564941406256 -4.8065185546875Q182.10180664062506 -4.47998046875 182.27880859375006 -4.168701171875Q182.44360351562506 -4.47998046875 182.61450195312506 -4.8065185546875Q182.78540039062506 -5.133056640625 183.02343750000006 -5.499267578125L183.89013671875006 -6.82373046875H185.14746093750006L182.86474609375006 -3.4423828125L185.25732421875006 0.0H183.98168945312506L182.98071289062506 -1.531982421875Q182.75488281250006 -1.8798828125 182.57788085937506 -2.1942138671875Q182.40087890625006 -2.508544921875 182.22998046875006 -2.79541015625Q182.07128906250006 -2.508544921875 181.90649414062506 -2.1942138671875Q181.74169921875006 -1.8798828125 181.50976562500006 -1.531982421875L180.49658203125006 0.0Z" transform="translate(71.1,53.26)" fill="#475569"/>
  <path d="M189.84809570312507 -6.82373046875V-5.8837890625H188.44428710937507V-1.77001953125Q188.44428710937507 -1.312255859375 188.63044433593757 -1.1016845703125Q188.81660156250007 -0.89111328125 189.24995117187507 -0.89111328125Q189.35371093750007 -0.89111328125 189.51545410156257 -0.91552734375Q189.67719726562507 -0.93994140625 189.81147460937507 -0.96435546875L190.03730468750007 -0.03662109375Q189.86640625000007 0.0244140625 189.64973144531257 0.054931640625Q189.43305664062507 0.08544921875 189.21943359375007 0.08544921875Q188.33442382812507 0.08544921875 187.84003906250007 -0.3814697265625Q187.34565429687507 -0.848388671875 187.34565429687507 -1.6845703125V-5.8837890625H186.32026367187507V-6.82373046875H187.34565429687507V-8.447265625H188.44428710937507V-6.82373046875Z" transform="translate(71.1,53.26)" fill="#475569"/>
  <path d="M194.29848632812508 0.146484375Q193.30971679687508 0.146484375 192.59255371093758 -0.29296875Q191.87539062500008 -0.732421875 191.48781738281258 -1.519775390625Q191.10024414062508 -2.30712890625 191.10024414062508 -3.35693359375Q191.10024414062508 -4.40673828125 191.47866210937508 -5.206298828125Q191.85708007812508 -6.005859375 192.54982910156258 -6.45751953125Q193.24257812500008 -6.9091796875 194.17031250000008 -6.9091796875Q194.71352539062508 -6.9091796875 195.24147949218758 -6.7291259765625Q195.76943359375008 -6.549072265625 196.19973144531258 -6.1492919921875Q196.63002929687508 -5.74951171875 196.88637695312508 -5.096435546875Q197.14272460937508 -4.443359375 197.14272460937508 -3.497314453125V-3.03955078125H192.21108398437508Q192.25380859375008 -1.971435546875 192.82448730468758 -1.4007568359375Q193.39516601562508 -0.830078125 194.30458984375008 -0.830078125Q194.90883789062508 -0.830078125 195.34523925781258 -1.0955810546875Q195.78164062500008 -1.361083984375 195.97084960937508 -1.8798828125L197.03286132812508 -1.5869140625Q196.79482421875008 -0.811767578125 196.07155761718758 -0.3326416015625Q195.34829101562508 0.146484375 194.29848632812508 0.146484375ZM192.21718750000008 -3.96728515625H196.02578125000008Q195.94643554687508 -4.840087890625 195.47951660156258 -5.3863525390625Q195.01259765625008 -5.9326171875 194.17031250000008 -5.9326171875Q193.58437500000008 -5.9326171875 193.16018066406258 -5.657958984375Q192.73598632812508 -5.38330078125 192.49184570312508 -4.937744140625Q192.24770507812508 -4.4921875 192.21718750000008 -3.96728515625Z" transform="translate(71.1,53.26)" fill="#475569"/>
  <path d="M200.1160644531251 -4.08935546875V0.0H199.0174316406251V-6.82373046875H200.0733398437501L200.0794433593751 -5.560302734375Q200.4090332031251 -6.28662109375 200.9430908203126 -6.597900390625Q201.4771484375001 -6.9091796875 202.1668457031251 -6.9091796875Q203.2044433593751 -6.9091796875 203.8392089843751 -6.268310546875Q204.4739746093751 -5.62744140625 204.4739746093751 -4.33349609375V0.0H203.3753417968751V-4.241943359375Q203.3753417968751 -5.029296875 202.9633544921876 -5.474853515625Q202.5513671875001 -5.92041015625 201.8372558593751 -5.92041015625Q201.0987304687501 -5.92041015625 200.6073974609376 -5.4412841796875Q200.1160644531251 -4.962158203125 200.1160644531251 -4.08935546875Z" transform="translate(71.1,53.26)" fill="#475569"/>
  <path d="M209.2600585937501 0.146484375Q208.4116699218751 0.146484375 207.7585937500001 -0.286865234375Q207.1055175781251 -0.72021484375 206.7393066406251 -1.513671875Q206.3730957031251 -2.30712890625 206.3730957031251 -3.3935546875Q206.3730957031251 -4.473876953125 206.7423583984376 -5.2642822265625Q207.1116210937501 -6.0546875 207.7646972656251 -6.48193359375Q208.4177734375001 -6.9091796875 209.2661621093751 -6.9091796875Q209.9314453125001 -6.9091796875 210.3220703125001 -6.689453125Q210.7126953125001 -6.4697265625 210.9232666015626 -6.1920166015625Q211.1338378906251 -5.914306640625 211.2437011718751 -5.731201171875H211.3291503906251V-9.09423828125H212.4277832031251V0.0H211.3657714843751V-1.055908203125H211.2437011718751Q211.1338378906251 -0.86669921875 210.9171630859376 -0.5828857421875Q210.7004882812501 -0.299072265625 210.3068115234376 -0.0762939453125Q209.9131347656251 0.146484375 209.2600585937501 0.146484375ZM209.4248535156251 -0.836181640625Q210.3525878906251 -0.836181640625 210.8469726562501 -1.55029296875Q211.3413574218751 -2.264404296875 211.3413574218751 -3.40576171875Q211.3413574218751 -4.534912109375 210.8561279296876 -5.230712890625Q210.3708984375001 -5.926513671875 209.4248535156251 -5.926513671875Q208.7778808593751 -5.926513671875 208.3475830078126 -5.5908203125Q207.9172851562501 -5.255126953125 207.7036621093751 -4.6844482421875Q207.4900390625001 -4.11376953125 207.4900390625001 -3.40576171875Q207.4900390625001 -2.691650390625 207.7067138671876 -2.1087646484375Q207.9233886718751 -1.52587890625 208.3567382812501 -1.1810302734375Q208.7900878906251 -0.836181640625 209.4248535156251 -0.836181640625Z" transform="translate(71.1,53.26)" fill="#475569"/>
  <path d="M216.9758300781251 0.146484375Q215.9260253906251 0.146484375 215.2302246093751 -0.311279296875Q214.5344238281251 -0.76904296875 214.3513183593751 -1.654052734375L215.3950195312501 -1.904296875Q215.5415039062501 -1.3427734375 215.9473876953126 -1.080322265625Q216.3532714843751 -0.81787109375 216.9636230468751 -0.81787109375Q217.6777343750001 -0.81787109375 218.1019287109376 -1.123046875Q218.5261230468751 -1.42822265625 218.5261230468751 -1.849365234375Q218.5261230468751 -2.55126953125 217.5251464843751 -2.789306640625L216.3898925781251 -3.057861328125Q214.5588378906251 -3.4912109375 214.5588378906251 -4.91943359375Q214.5588378906251 -5.50537109375 214.8884277343751 -5.9539794921875Q215.2180175781251 -6.402587890625 215.7886962890626 -6.6558837890625Q216.3593750000001 -6.9091796875 217.0856933593751 -6.9091796875Q218.1416015625001 -6.9091796875 218.7244873046876 -6.4483642578125Q219.3073730468751 -5.987548828125 219.5393066406251 -5.267333984375L218.5444335937501 -5.010986328125Q218.4040527343751 -5.377197265625 218.0775146484376 -5.67626953125Q217.7509765625001 -5.975341796875 217.0917968750001 -5.975341796875Q216.4814453125001 -5.975341796875 216.0755615234376 -5.694580078125Q215.6696777343751 -5.413818359375 215.6696777343751 -4.986572265625Q215.6696777343751 -4.608154296875 215.9443359375001 -4.3792724609375Q216.2189941406251 -4.150390625 216.8171386718751 -4.010009765625L217.8486328125001 -3.765869140625Q218.7763671875001 -3.546142578125 219.2219238281251 -3.0853271484375Q219.6674804687501 -2.62451171875 219.6674804687501 -1.922607421875Q219.6674804687501 -1.324462890625 219.3287353515626 -0.8575439453125Q218.9899902343751 -0.390625 218.3826904296876 -0.1220703125Q217.7753906250001 0.146484375 216.9758300781251 0.146484375Z" transform="translate(71.1,53.26)" fill="#475569"/>
  <path d="M225.37001953125014 0.0V-6.82373046875H226.46865234375014V0.0ZM225.92543945312514 -7.940673828125Q225.61416015625014 -7.940673828125 225.38833007812514 -8.154296875Q225.16250000000014 -8.367919921875 225.16250000000014 -8.6669921875Q225.16250000000014 -8.97216796875 225.38833007812514 -9.1827392578125Q225.61416015625014 -9.393310546875 225.92543945312514 -9.393310546875Q226.24282226562514 -9.393310546875 226.46865234375014 -9.1827392578125Q226.69448242187514 -8.97216796875 226.69448242187514 -8.6669921875Q226.69448242187514 -8.367919921875 226.46865234375014 -8.154296875Q226.24282226562514 -7.940673828125 225.92543945312514 -7.940673828125Z" transform="translate(71.1,53.26)" fill="#475569"/>
  <path d="M231.38291015625015 -6.82373046875V-5.8837890625H229.97910156250015V-1.77001953125Q229.97910156250015 -1.312255859375 230.16525878906265 -1.1016845703125Q230.35141601562515 -0.89111328125 230.78476562500015 -0.89111328125Q230.88852539062515 -0.89111328125 231.05026855468765 -0.91552734375Q231.21201171875015 -0.93994140625 231.34628906250015 -0.96435546875L231.57211914062515 -0.03662109375Q231.40122070312515 0.0244140625 231.18454589843765 0.054931640625Q230.96787109375015 0.08544921875 230.75424804687515 0.08544921875Q229.86923828125015 0.08544921875 229.37485351562515 -0.3814697265625Q228.88046875000015 -0.848388671875 228.88046875000015 -1.6845703125V-5.8837890625H227.85507812500015V-6.82373046875H228.88046875000015V-8.447265625H229.97910156250015V-6.82373046875Z" transform="translate(71.1,53.26)" fill="#475569"/>
  <path d="M235.28398437500016 0.146484375Q234.23417968750016 0.146484375 233.53837890625016 -0.311279296875Q232.84257812500016 -0.76904296875 232.65947265625016 -1.654052734375L233.70317382812516 -1.904296875Q233.84965820312516 -1.3427734375 234.25554199218766 -1.080322265625Q234.66142578125016 -0.81787109375 235.27177734375016 -0.81787109375Q235.98588867187516 -0.81787109375 236.41008300781266 -1.123046875Q236.83427734375016 -1.42822265625 236.83427734375016 -1.849365234375Q236.83427734375016 -2.55126953125 235.83330078125016 -2.789306640625L234.69804687500016 -3.057861328125Q232.86699218750016 -3.4912109375 232.86699218750016 -4.91943359375Q232.86699218750016 -5.50537109375 233.19658203125016 -5.9539794921875Q233.52617187500016 -6.402587890625 234.09685058593766 -6.6558837890625Q234.66752929687516 -6.9091796875 235.39384765625016 -6.9091796875Q236.44975585937516 -6.9091796875 237.03264160156266 -6.4483642578125Q237.61552734375016 -5.987548828125 237.84746093750016 -5.267333984375L236.85258789062516 -5.010986328125Q236.71220703125016 -5.377197265625 236.38566894531266 -5.67626953125Q236.05913085937516 -5.975341796875 235.39995117187516 -5.975341796875Q234.78959960937516 -5.975341796875 234.38371582031266 -5.694580078125Q233.97783203125016 -5.413818359375 233.97783203125016 -4.986572265625Q233.97783203125016 -4.608154296875 234.25249023437516 -4.3792724609375Q234.52714843750016 -4.150390625 235.12529296875016 -4.010009765625L236.15678710937516 -3.765869140625Q237.08452148437516 -3.546142578125 237.53007812500016 -3.0853271484375Q237.97563476562516 -2.62451171875 237.97563476562516 -1.922607421875Q237.97563476562516 -1.324462890625 237.63688964843766 -0.8575439453125Q237.29814453125016 -0.390625 236.69084472656266 -0.1220703125Q236.08354492187516 0.146484375 235.28398437500016 0.146484375Z" transform="translate(71.1,53.26)" fill="#475569"/>
  <path d="M242.73120117187517 0.146484375Q241.74243164062517 0.146484375 241.02526855468767 -0.29296875Q240.30810546875017 -0.732421875 239.92053222656267 -1.519775390625Q239.53295898437517 -2.30712890625 239.53295898437517 -3.35693359375Q239.53295898437517 -4.40673828125 239.91137695312517 -5.206298828125Q240.28979492187517 -6.005859375 240.98254394531267 -6.45751953125Q241.67529296875017 -6.9091796875 242.60302734375017 -6.9091796875Q243.14624023437517 -6.9091796875 243.67419433593767 -6.7291259765625Q244.20214843750017 -6.549072265625 244.63244628906267 -6.1492919921875Q245.06274414062517 -5.74951171875 245.31909179687517 -5.096435546875Q245.57543945312517 -4.443359375 245.57543945312517 -3.497314453125V-3.03955078125H240.64379882812517Q240.68652343750017 -1.971435546875 241.25720214843767 -1.4007568359375Q241.82788085937517 -0.830078125 242.73730468750017 -0.830078125Q243.34155273437517 -0.830078125 243.77795410156267 -1.0955810546875Q244.21435546875017 -1.361083984375 244.40356445312517 -1.8798828125L245.46557617187517 -1.5869140625Q245.22753906250017 -0.811767578125 244.50427246093767 -0.3326416015625Q243.78100585937517 0.146484375 242.73120117187517 0.146484375ZM240.64990234375017 -3.96728515625H244.45849609375017Q244.37915039062517 -4.840087890625 243.91223144531267 -5.3863525390625Q243.44531250000017 -5.9326171875 242.60302734375017 -5.9326171875Q242.01708984375017 -5.9326171875 241.59289550781267 -5.657958984375Q241.16870117187517 -5.38330078125 240.92456054687517 -4.937744140625Q240.68041992187517 -4.4921875 240.64990234375017 -3.96728515625Z" transform="translate(71.1,53.26)" fill="#475569"/>
  <path d="M248.54877929687518 -9.09423828125V0.0H247.45014648437518V-9.09423828125Z" transform="translate(71.1,53.26)" fill="#475569"/>
  <path d="M253.9513183593752 -6.82373046875V-5.8837890625H252.3766113281252V0.0H251.2779785156252V-5.8837890625H249.9352050781252V-6.82373046875H251.2779785156252V-7.733154296875Q251.2779785156252 -8.3251953125 251.5556884765627 -8.721923828125Q251.8333984375002 -9.11865234375 252.2789550781252 -9.320068359375Q252.7245117187502 -9.521484375 253.2188964843752 -9.521484375Q253.6095214843752 -9.521484375 253.8658691406252 -9.4573974609375Q254.1222167968752 -9.393310546875 254.2442871093752 -9.33837890625L253.9391113281252 -8.3984375Q253.8536621093752 -8.428955078125 253.7163330078127 -8.465576171875Q253.5790039062502 -8.502197265625 253.3470703125002 -8.502197265625Q252.8404785156252 -8.502197265625 252.6085449218752 -8.2427978515625Q252.3766113281252 -7.9833984375 252.3766113281252 -7.489013671875V-6.82373046875Z" transform="translate(71.1,53.26)" fill="#475569"/>
</svg>
